<svg xmlns="http://www.w3.org/2000/svg" width="24" height="24" viewBox="0 0 24 24">
  <g id="icon_search" transform="translate(-525 -3094)">
    <rect id="Rectangle_4590" data-name="Rectangle 4590" width="24" height="24" transform="translate(525 3094)" fill="rgba(45,45,45,0)"/>
    <g id="Group_21504" data-name="Group 21504" transform="translate(153.163 -104.813)">
      <g id="Path_51680" data-name="Path 51680" transform="translate(373.524 3200.5)" fill="none">
        <path d="M9.06,0A9.06,9.06,0,1,1,0,9.06,9.06,9.06,0,0,1,9.06,0Z" stroke="none"/>
        <path d="M 9.059783935546875 1.000003814697266 C 4.615604400634766 1.000003814697266 1.000003814697266 4.615604400634766 1.000003814697266 9.059783935546875 C 1.000003814697266 13.50396347045898 4.615604400634766 17.11956405639648 9.059783935546875 17.11956405639648 C 13.50396347045898 17.11956405639648 17.11956405639648 13.50396347045898 17.11956405639648 9.059783935546875 C 17.11956405639648 4.615604400634766 13.50396347045898 1.000003814697266 9.059783935546875 1.000003814697266 M 9.059783935546875 3.814697265625e-06 C 14.06336402893066 3.814697265625e-06 18.11956405639648 4.056203842163086 18.11956405639648 9.059783935546875 C 18.11956405639648 14.06336402893066 14.06336402893066 18.11956405639648 9.059783935546875 18.11956405639648 C 4.056203842163086 18.11956405639648 3.814697265625e-06 14.06336402893066 3.814697265625e-06 9.059783935546875 C 3.814697265625e-06 4.056203842163086 4.056203842163086 3.814697265625e-06 9.059783935546875 3.814697265625e-06 Z" stroke="none" fill="#ab821a"/>
      </g>
      <line id="Line_24" data-name="Line 24" x2="3.73" y2="3.73" transform="translate(390.045 3217.021)" fill="none" stroke="#ab821a" stroke-linecap="round" stroke-linejoin="round" stroke-width="1"/>
    </g>
  </g>
</svg>
